<svg xmlns="http://www.w3.org/2000/svg" width="306" height="139" viewBox="0 0 306 139" version="1.1"><path d="M 162.666 9.250 C 160.969 10.811, 157.702 18.476, 151.995 34.289 L 143.770 57.078 144.475 65.539 C 145.323 75.723, 145.758 75.859, 153.144 68.250 C 158.629 62.599, 158.876 62.087, 167.430 38.545 C 177.068 12.021, 177.151 11.215, 170.530 8.448 C 165.993 6.552, 165.549 6.598, 162.666 9.250 M 163.028 11.466 C 161.143 13.738, 162.172 15.076, 167.302 17.023 C 171.867 18.756, 172.061 18.755, 173.010 16.981 C 175.558 12.221, 166.537 7.238, 163.028 11.466 M 160.569 17.888 C 159.959 18.876, 146 56.919, 146 57.595 C 146 61.022, 149.310 55.719, 152.146 47.748 C 154.152 42.112, 157.391 33.124, 159.344 27.776 C 162.251 19.816, 162.971 14.001, 160.569 17.888 M 164.619 19.807 C 161.728 24.485, 150.297 59.175, 151.500 59.619 C 152.294 59.911, 157.569 46.314, 166.773 20.250 C 167.256 18.882, 165.424 18.505, 164.619 19.807 M 169 20.301 C 169 20.467, 165.680 29.692, 161.621 40.801 C 155.954 56.314, 152.251 72.739, 157.462 59.250 C 166.977 34.618, 171.647 20, 170 20 C 169.450 20, 169 20.136, 169 20.301 M 129.409 23.874 C 128.909 24.254, 125.814 27.363, 122.530 30.783 L 116.560 37.002 123.001 43.501 C 126.544 47.076, 129.991 50, 130.662 50 C 133.763 50, 132.807 47.367, 127.904 42.402 L 122.568 37 127.784 31.719 C 130.653 28.814, 133 25.937, 133 25.326 C 133 23.923, 130.616 22.960, 129.409 23.874 M 183.331 24.579 C 182.927 25.632, 184.512 27.968, 188.078 31.579 L 193.432 37 188.216 42.281 C 185.347 45.186, 183 48.111, 183 48.781 C 183 51.663, 187.007 49.547, 192.999 43.501 L 199.440 37.002 193.470 30.783 C 185.136 22.101, 184.445 21.678, 183.331 24.579 M 146.058 61.683 C 146.089 62.682, 146.427 65.211, 146.808 67.303 L 147.500 71.106 151.416 67.091 L 155.331 63.076 152.916 62.172 C 146.721 59.852, 145.998 59.800, 146.058 61.683 M 58.073 88.635 C 48.339 101.009, 60.496 130.504, 71 120 C 77.930 113.070, 72.755 86, 64.500 86 C 60.986 86, 59.745 86.509, 58.073 88.635 M 82.714 86.619 C 82.321 87.012, 82 95.133, 82 104.667 L 82 122 84.500 122 L 87 122 87.086 110.250 C 87.181 97.267, 87.987 98.007, 90.113 113.031 C 91.362 121.853, 91.428 122, 94.146 122 C 97.195 122, 96.792 123.154, 99.389 107 L 100.756 98.500 100.878 110.250 L 101 122 103.500 122 L 106 122 106 104 L 106 86 102.177 86 L 98.353 86 96.528 98.250 C 94.479 112.003, 94.429 111.990, 92.134 97.185 L 90.478 86.500 86.953 86.202 C 85.015 86.039, 83.107 86.226, 82.714 86.619 M 114.593 88.250 C 119.290 102.770, 121 110.088, 121 115.663 L 121 122 124 122 C 126.991 122, 127 121.982, 127 116.162 C 127 112.422, 128.258 106.049, 130.500 98.429 C 132.425 91.887, 134 86.384, 134 86.201 C 134 81.442, 128.346 87.712, 126.516 94.500 C 124.555 101.773, 124.291 102.227, 123.616 99.500 C 120.549 87.115, 119.991 86, 116.862 86 C 114.205 86, 113.948 86.255, 114.593 88.250 M 143.039 88.189 C 139.971 91.481, 139.940 116.940, 143 120 C 148.348 125.348, 156.836 121.631, 157.748 113.541 C 158.259 109.011, 158.252 109, 155.130 109 C 152.145 109, 152 109.185, 152 113 C 152 117.734, 147.797 119.104, 146.630 114.750 C 145.842 111.807, 145.852 96.156, 146.644 93.198 C 147.633 89.506, 151.417 90.642, 151.813 94.750 C 152.182 98.577, 158 99.892, 158 96.149 C 158 87.364, 148.511 82.315, 143.039 88.189 M 168.861 87.912 C 165.556 90.587, 165.189 116.342, 168.405 119.895 C 174.951 127.129, 183.078 121.370, 183.795 108.988 C 184.946 89.091, 178.551 80.065, 168.861 87.912 M 193 103.884 L 193 122 199.045 122 C 215.490 122, 216.061 87.235, 199.634 86.189 L 193 85.767 193 103.884 M 219 104 L 219 122 227 122 C 234.867 122, 235 121.958, 235 119.500 C 235 117.167, 234.667 117, 230 117 L 225 117 225 112.060 L 225 107.121 228.750 106.810 C 234.739 106.315, 235.028 101, 229.066 101 L 225 101 225 96 L 225 91 230 91 C 234.667 91, 235 90.833, 235 88.500 C 235 86.042, 234.867 86, 227 86 L 219 86 219 104 M 245.733 87.750 C 241.317 92.650, 242.333 98.138, 249.023 105.525 C 254.823 111.929, 255.952 117, 251.579 117 C 249.703 117, 249.011 116.326, 248.500 114 C 247.604 109.922, 243 109.559, 243 113.566 C 243 119.252, 245.749 121.969, 251.500 121.969 C 262.336 121.969, 263.185 112.399, 253.296 101.724 C 249.924 98.084, 248.947 96.301, 249.186 94.224 C 249.624 90.420, 253.493 89.843, 254.397 93.446 C 255.288 96.995, 260 97.154, 260 93.635 C 260 87.199, 249.961 83.058, 245.733 87.750 M 62.667 91.667 C 62.300 92.033, 62 97.883, 62 104.667 L 62 117 64.393 117 C 67.567 117, 68.002 115.504, 67.986 104.668 C 67.968 92.242, 66.261 88.072, 62.667 91.667 M 172.434 92.311 C 172.157 93.032, 172.059 98.770, 172.215 105.061 L 172.500 116.500 175 116.500 C 177.550 116.500, 179.299 100.381, 177.523 93.250 C 176.905 90.773, 173.281 90.104, 172.434 92.311 M 198.709 91.624 C 198.319 92.014, 198 97.913, 198 104.733 L 198 117.133 200.750 116.816 L 203.500 116.500 203.500 104 C 203.500 91.419, 202.220 88.113, 198.709 91.624" stroke="none" fill="#e6e7ea" fill-rule="evenodd"/><path d="M 0 69.503 L 0 139.006 153.250 138.753 L 306.500 138.500 306.757 69.250 L 307.014 0 153.507 0 L 0 0 0 69.503 M 0.473 70 C 0.473 108.225, 0.598 123.862, 0.750 104.750 C 0.902 85.637, 0.902 54.362, 0.750 35.250 C 0.598 16.137, 0.473 31.775, 0.473 70 M 162.666 9.250 C 160.969 10.811, 157.702 18.476, 151.995 34.289 L 143.770 57.078 144.475 65.539 C 145.323 75.723, 145.758 75.859, 153.144 68.250 C 158.629 62.599, 158.876 62.087, 167.430 38.545 C 177.068 12.021, 177.151 11.215, 170.530 8.448 C 165.993 6.552, 165.549 6.598, 162.666 9.250 M 163.028 11.466 C 161.143 13.738, 162.172 15.076, 167.302 17.023 C 171.867 18.756, 172.061 18.755, 173.010 16.981 C 175.558 12.221, 166.537 7.238, 163.028 11.466 M 160.569 17.888 C 159.959 18.876, 146 56.919, 146 57.595 C 146 61.022, 149.310 55.719, 152.146 47.748 C 154.152 42.112, 157.391 33.124, 159.344 27.776 C 162.251 19.816, 162.971 14.001, 160.569 17.888 M 164.619 19.807 C 161.728 24.485, 150.297 59.175, 151.500 59.619 C 152.294 59.911, 157.569 46.314, 166.773 20.250 C 167.256 18.882, 165.424 18.505, 164.619 19.807 M 169 20.301 C 169 20.467, 165.680 29.692, 161.621 40.801 C 155.954 56.314, 152.251 72.739, 157.462 59.250 C 166.977 34.618, 171.647 20, 170 20 C 169.450 20, 169 20.136, 169 20.301 M 129.409 23.874 C 128.909 24.254, 125.814 27.363, 122.530 30.783 L 116.560 37.002 123.001 43.501 C 126.544 47.076, 129.991 50, 130.662 50 C 133.763 50, 132.807 47.367, 127.904 42.402 L 122.568 37 127.784 31.719 C 130.653 28.814, 133 25.937, 133 25.326 C 133 23.923, 130.616 22.960, 129.409 23.874 M 183.331 24.579 C 182.927 25.632, 184.512 27.968, 188.078 31.579 L 193.432 37 188.216 42.281 C 185.347 45.186, 183 48.111, 183 48.781 C 183 51.663, 187.007 49.547, 192.999 43.501 L 199.440 37.002 193.470 30.783 C 185.136 22.101, 184.445 21.678, 183.331 24.579 M 146.058 61.683 C 146.089 62.682, 146.427 65.211, 146.808 67.303 L 147.500 71.106 151.416 67.091 L 155.331 63.076 152.916 62.172 C 146.721 59.852, 145.998 59.800, 146.058 61.683 M 58.073 88.635 C 48.339 101.009, 60.496 130.504, 71 120 C 77.930 113.070, 72.755 86, 64.500 86 C 60.986 86, 59.745 86.509, 58.073 88.635 M 82.714 86.619 C 82.321 87.012, 82 95.133, 82 104.667 L 82 122 84.500 122 L 87 122 87.086 110.250 C 87.181 97.267, 87.987 98.007, 90.113 113.031 C 91.362 121.853, 91.428 122, 94.146 122 C 97.195 122, 96.792 123.154, 99.389 107 L 100.756 98.500 100.878 110.250 L 101 122 103.500 122 L 106 122 106 104 L 106 86 102.177 86 L 98.353 86 96.528 98.250 C 94.479 112.003, 94.429 111.990, 92.134 97.185 L 90.478 86.500 86.953 86.202 C 85.015 86.039, 83.107 86.226, 82.714 86.619 M 114.593 88.250 C 119.290 102.770, 121 110.088, 121 115.663 L 121 122 124 122 C 126.991 122, 127 121.982, 127 116.162 C 127 112.422, 128.258 106.049, 130.500 98.429 C 132.425 91.887, 134 86.384, 134 86.201 C 134 81.442, 128.346 87.712, 126.516 94.500 C 124.555 101.773, 124.291 102.227, 123.616 99.500 C 120.549 87.115, 119.991 86, 116.862 86 C 114.205 86, 113.948 86.255, 114.593 88.250 M 143.039 88.189 C 139.971 91.481, 139.940 116.940, 143 120 C 148.348 125.348, 156.836 121.631, 157.748 113.541 C 158.259 109.011, 158.252 109, 155.130 109 C 152.145 109, 152 109.185, 152 113 C 152 117.734, 147.797 119.104, 146.630 114.750 C 145.842 111.807, 145.852 96.156, 146.644 93.198 C 147.633 89.506, 151.417 90.642, 151.813 94.750 C 152.182 98.577, 158 99.892, 158 96.149 C 158 87.364, 148.511 82.315, 143.039 88.189 M 168.861 87.912 C 165.556 90.587, 165.189 116.342, 168.405 119.895 C 174.951 127.129, 183.078 121.370, 183.795 108.988 C 184.946 89.091, 178.551 80.065, 168.861 87.912 M 193 103.884 L 193 122 199.045 122 C 215.490 122, 216.061 87.235, 199.634 86.189 L 193 85.767 193 103.884 M 219 104 L 219 122 227 122 C 234.867 122, 235 121.958, 235 119.500 C 235 117.167, 234.667 117, 230 117 L 225 117 225 112.060 L 225 107.121 228.750 106.810 C 234.739 106.315, 235.028 101, 229.066 101 L 225 101 225 96 L 225 91 230 91 C 234.667 91, 235 90.833, 235 88.500 C 235 86.042, 234.867 86, 227 86 L 219 86 219 104 M 245.733 87.750 C 241.317 92.650, 242.333 98.138, 249.023 105.525 C 254.823 111.929, 255.952 117, 251.579 117 C 249.703 117, 249.011 116.326, 248.500 114 C 247.604 109.922, 243 109.559, 243 113.566 C 243 119.252, 245.749 121.969, 251.500 121.969 C 262.336 121.969, 263.185 112.399, 253.296 101.724 C 249.924 98.084, 248.947 96.301, 249.186 94.224 C 249.624 90.420, 253.493 89.843, 254.397 93.446 C 255.288 96.995, 260 97.154, 260 93.635 C 260 87.199, 249.961 83.058, 245.733 87.750 M 62.667 91.667 C 62.300 92.033, 62 97.883, 62 104.667 L 62 117 64.393 117 C 67.567 117, 68.002 115.504, 67.986 104.668 C 67.968 92.242, 66.261 88.072, 62.667 91.667 M 172.434 92.311 C 172.157 93.032, 172.059 98.770, 172.215 105.061 L 172.500 116.500 175 116.500 C 177.550 116.500, 179.299 100.381, 177.523 93.250 C 176.905 90.773, 173.281 90.104, 172.434 92.311 M 198.709 91.624 C 198.319 92.014, 198 97.913, 198 104.733 L 198 117.133 200.750 116.816 L 203.500 116.500 203.500 104 C 203.500 91.419, 202.220 88.113, 198.709 91.624" stroke="none" fill="#3e537f" fill-rule="evenodd"/></svg>